PathFileType	4	(X/Y/Z)	OpenSim_Sub10_EMGBaseline_Magnet.trc
DataRate	CameraRate	NumFrames	NumMarkers	Units	OrigDataRate	OrigDataStartFrame	OrigNumFrames
100	100	30	8	m	100	1	8201
Frame#	Time	torso_imu_offset_imu	pelvis_imu_offset_imu	tibia_r_imu_offset_imu	femur_r_imu_offset_imu	tibia_l_imu_offset_imu	femur_l_imu_offset_imu	toes_r_imu_offset_imu	toes_l_imu_offset_imu
				X1	Y1	Z1	X2	Y2	Z2	X3	Y3	Z3	X4	Y4	Z4	X5	Y5	Z5	X6	Y6	Z6	X7	Y7	Z7	X8		Y8	Z8	

1	0	-0.95556600	-0.09106400	0.00878900	-0.64843800	0.12255900	-0.69116200	-0.66772500	-0.58862300	-0.27270500	-0.70410200	-0.47070300	-0.01464800	-0.69628900	0.39648400	0.23852500	-0.70800800	0.28540000	0.36914100	-0.62573200	-0.36279300	-0.47290000	-0.70947300	-0.14721700	-0.43774400
2	0.01000000	-0.95752000	-0.09326200	0.00878900	-0.64843800	0.12670900	-0.69580100	-0.67407200	-0.58862300	-0.27270500	-0.70410200	-0.47265600	-0.01220700	-0.69409200	0.39428700	0.23413100	-0.70800800	0.28540000	0.36914100	-0.62158200	-0.36084000	-0.47290000	-0.71411100	-0.14721700	-0.43530300
3	0.02000000	-0.95971700	-0.09106400	0.00415000	-0.64648400	0.12890600	-0.69360400	-0.66967800	-0.59057600	-0.27490200	-0.70385700	-0.47485400	-0.01660200	-0.69848600	0.39648400	0.24292000	-0.70605500	0.28979500	0.37133800	-0.62377900	-0.36499000	-0.46875000	-0.70947300	-0.14721700	-0.43090800
4	0.03000000	-0.95556600	-0.09106400	0.00439500	-0.64648400	0.12670900	-0.68896500	-0.66967800	-0.59277300	-0.27270500	-0.69775400	-0.47070300	-0.01464800	-0.69409200	0.39868200	0.23828100	-0.71240200	0.28759800	0.37133800	-0.61962900	-0.36084000	-0.47290000	-0.70727500	-0.14941400	-0.42871100
5	0.04000000	-0.95752000	-0.09326200	0.00659200	-0.64428700	0.12670900	-0.69360400	-0.67187500	-0.58862300	-0.27270500	-0.70385700	-0.47265600	-0.02148400	-0.69604500	0.38549800	0.24121100	-0.70800800	0.28759800	0.37133800	-0.62182600	-0.35888700	-0.47094700	-0.71215800	-0.14062500	-0.43310500
6	0.05000000	-0.96386700	-0.09326200	0.00878900	-0.64624000	0.12475600	-0.69580100	-0.67187500	-0.59057600	-0.27490200	-0.70581100	-0.48095700	-0.01416000	-0.69848600	0.39428700	0.23852500	-0.71240200	0.28759800	0.37573200	-0.61547900	-0.35864300	-0.47094700	-0.71435500	-0.13842800	-0.43554700
7	0.06000000	-0.95752000	-0.09326200	0.00659200	-0.64868200	0.13085900	-0.68896500	-0.67822300	-0.58642600	-0.27294900	-0.70605500	-0.47265600	-0.01684600	-0.70068400	0.38989300	0.23657200	-0.70800800	0.28759800	0.37133800	-0.61962900	-0.36084000	-0.47290000	-0.71411100	-0.14721700	-0.42871100
8	0.07000000	-0.95752000	-0.09741200	0.00463900	-0.64648400	0.12670900	-0.69360400	-0.66967800	-0.59057600	-0.27270500	-0.70385700	-0.47485400	-0.01904300	-0.69873000	0.39868200	0.23608400	-0.70800800	0.28759800	0.37133800	-0.62353500	-0.36694300	-0.47290000	-0.70971700	-0.14062500	-0.43774400
9	0.08000000	-0.96191400	-0.08911100	0.00415000	-0.65063500	0.12670900	-0.70043900	-0.66967800	-0.59057600	-0.27050800	-0.70605500	-0.47485400	-0.01440400	-0.69653300	0.40087900	0.23828100	-0.70800800	0.28759800	0.37353500	-0.62377900	-0.36279300	-0.47094700	-0.70971700	-0.14502000	-0.42651400
10	0.09000000	-0.95336900	-0.09106400	0.00659200	-0.64648400	0.13110400	-0.69604500	-0.66748000	-0.59472700	-0.27490200	-0.70385700	-0.47680700	-0.01440400	-0.69189500	0.39868200	0.23828100	-0.71020500	0.28320300	0.37353500	-0.61547900	-0.36084000	-0.47070300	-0.70947300	-0.14721700	-0.43310500
11	0.10000000	-0.96411100	-0.09106400	0.00854500	-0.64624000	0.12475600	-0.69335900	-0.66967800	-0.59277300	-0.26831100	-0.70800800	-0.47485400	-0.01684600	-0.69189500	0.39428700	0.24072300	-0.71020500	0.28540000	0.37133800	-0.62377900	-0.36084000	-0.47509800	-0.70727500	-0.14721700	-0.43090800
12	0.11000000	-0.96167000	-0.09545900	0.00659200	-0.65063500	0.12475600	-0.69580100	-0.67187500	-0.59057600	-0.27270500	-0.70605500	-0.47070300	-0.01684600	-0.69628900	0.39428700	0.23852500	-0.70581100	0.28759800	0.37133800	-0.61743200	-0.36694300	-0.46460000	-0.70947300	-0.14721700	-0.43530300
13	0.12000000	-0.95752000	-0.09106400	0.01098600	-0.64868200	0.12890600	-0.69360400	-0.66772500	-0.58862300	-0.27514600	-0.70385700	-0.47485400	-0.01440400	-0.69165000	0.39209000	0.23413100	-0.70800800	0.28759800	0.36669900	-0.62793000	-0.36499000	-0.46875000	-0.70068400	-0.14697300	-0.43530300
14	0.13000000	-0.95532200	-0.09521500	0.00659200	-0.64624000	0.12475600	-0.69116200	-0.66772500	-0.59057600	-0.26611300	-0.70385700	-0.47265600	-0.02148400	-0.69189500	0.39868200	0.23608400	-0.69921900	0.28344700	0.36914100	-0.62597700	-0.36084000	-0.47290000	-0.70947300	-0.14941400	-0.43090800
15	0.14000000	-0.95776400	-0.08691400	0.00634800	-0.64428700	0.13110400	-0.69360400	-0.66992200	-0.58862300	-0.27734400	-0.70385700	-0.47900400	-0.01416000	-0.69409200	0.39428700	0.23632800	-0.71020500	0.28759800	0.37353500	-0.61743200	-0.36279300	-0.47290000	-0.70947300	-0.14941400	-0.44213900
16	0.15000000	-0.95971700	-0.08886700	0.00634800	-0.64843800	0.12670900	-0.69360400	-0.66967800	-0.59057600	-0.27050800	-0.70385700	-0.47485400	-0.01220700	-0.69628900	0.39648400	0.24072300	-0.70581100	0.28759800	0.37573200	-0.61962900	-0.35864300	-0.47094700	-0.70727500	-0.15161100	-0.43530300
17	0.16000000	-0.96191400	-0.09326200	0.00659200	-0.64648400	0.12670900	-0.69116200	-0.67163100	-0.59472700	-0.27026400	-0.70605500	-0.47485400	-0.01440400	-0.69848600	0.39428700	0.24316400	-0.70800800	0.28759800	0.37793000	-0.61962900	-0.36084000	-0.47094700	-0.70507800	-0.14477500	-0.43774400
18	0.17000000	-0.95776400	-0.08886700	0.01074200	-0.64209000	0.12890600	-0.69140600	-0.67407200	-0.58642600	-0.27294900	-0.70385700	-0.47485400	-0.01220700	-0.69189500	0.39868200	0.23608400	-0.70581100	0.28759800	0.36669900	-0.62573200	-0.36303700	-0.47094700	-0.71411100	-0.14282200	-0.43554700
19	0.18000000	-0.95971700	-0.09106400	0.00415000	-0.64648400	0.12890600	-0.70068400	-0.66992200	-0.58862300	-0.27050800	-0.70410200	-0.47070300	-0.01684600	-0.69409200	0.39648400	0.23168900	-0.70825200	0.28979500	0.37793000	-0.62182600	-0.36084000	-0.46679700	-0.70947300	-0.14721700	-0.43774400
20	0.19000000	-0.95336900	-0.09326200	0.01098600	-0.64404300	0.12475600	-0.69580100	-0.67187500	-0.59057600	-0.27270500	-0.69970700	-0.47485400	-0.01220700	-0.69628900	0.39428700	0.23852500	-0.70800800	0.28540000	0.37573200	-0.62377900	-0.36279300	-0.47705100	-0.70507800	-0.14477500	-0.43994100
21	0.20000000	-0.95971700	-0.09326200	0.00659200	-0.64868200	0.12890600	-0.69824200	-0.66772500	-0.59057600	-0.27270500	-0.70190400	-0.47070300	-0.01684600	-0.69165000	0.39209000	0.23852500	-0.71020500	0.28100600	0.36914100	-0.62158200	-0.36889600	-0.47070300	-0.70971700	-0.14282200	-0.43994100
22	0.21000000	-0.95776400	-0.08886700	0.00415000	-0.64648400	0.12890600	-0.69604500	-0.66577100	-0.58862300	-0.27270500	-0.70825200	-0.47265600	-0.01464800	-0.69848600	0.39648400	0.24072300	-0.71020500	0.28759800	0.37573200	-0.61962900	-0.36474600	-0.47485400	-0.70971700	-0.14062500	-0.43310500
23	0.22000000	-0.95776400	-0.08886700	0.00854500	-0.64648400	0.12890600	-0.69604500	-0.67407200	-0.58642600	-0.27294900	-0.70410200	-0.47070300	-0.01464800	-0.69604500	0.38989300	0.23877000	-0.71044900	0.28979500	0.37353500	-0.62377900	-0.36499000	-0.47070300	-0.70947300	-0.14721700	-0.43774400
24	0.23000000	-0.95752000	-0.09521500	0.01098600	-0.64624000	0.12670900	-0.69824200	-0.66552700	-0.59277300	-0.27490200	-0.70605500	-0.47680700	-0.01660200	-0.69189500	0.39648400	0.23608400	-0.71240200	0.28759800	0.37353500	-0.61938500	-0.36694300	-0.47070300	-0.71191400	-0.14502000	-0.43774400
25	0.24000000	-0.95971700	-0.08886700	0.00854500	-0.64404300	0.12255900	-0.69335900	-0.67163100	-0.59472700	-0.27929700	-0.70605500	-0.47485400	-0.01440400	-0.69653300	0.39868200	0.23388700	-0.71020500	0.28540000	0.37353500	-0.62158200	-0.36279300	-0.47290000	-0.70947300	-0.14941400	-0.43310500
26	0.25000000	-0.95971700	-0.09106400	0.00854500	-0.64648400	0.13110400	-0.69604500	-0.67187500	-0.58862300	-0.27514600	-0.69995100	-0.47070300	-0.01464800	-0.69409200	0.39428700	0.24072300	-0.70581100	0.28320300	0.37353500	-0.62377900	-0.36084000	-0.46679700	-0.70752000	-0.14477500	-0.43994100
27	0.26000000	-0.95532200	-0.09326200	0.00878900	-0.64013700	0.13110400	-0.69824200	-0.67187500	-0.59277300	-0.27929700	-0.70800800	-0.47485400	-0.01684600	-0.70068400	0.39428700	0.23632800	-0.71240200	0.28540000	0.37133800	-0.62158200	-0.36279300	-0.47070300	-0.70727500	-0.14721700	-0.43774400
28	0.27000000	-0.95556600	-0.09106400	0.00878900	-0.64648400	0.12890600	-0.70068400	-0.66967800	-0.59472700	-0.27270500	-0.70190400	-0.47485400	-0.01440400	-0.69848600	0.39648400	0.23852500	-0.70556600	0.28125000	0.37573200	-0.62377900	-0.36279300	-0.47509800	-0.70727500	-0.14721700	-0.42871100
29	0.28000000	-0.95556600	-0.09106400	0.00878900	-0.64209000	0.12890600	-0.69360400	-0.67187500	-0.58862300	-0.27734400	-0.70166000	-0.48095700	-0.01635700	-0.68969700	0.39868200	0.23608400	-0.70141600	0.28344700	0.37353500	-0.62158200	-0.36499000	-0.47070300	-0.71191400	-0.14502000	-0.43090800
30	0.29000000	-0.95752000	-0.09106400	0.00878900	-0.64648400	0.12670900	-0.69360400	-0.66967800	-0.59277300	-0.27270500	-0.70605500	-0.47265600	-0.01220700	-0.69653300	0.40307600	0.23803700	-0.70800800	0.28759800	0.37133800	-0.62793000	-0.35888700	-0.47290000	-0.70507800	-0.14502000	-0.43310500
